<svg width="40" height="40" viewBox="0 0 40 40" fill="none" xmlns="http://www.w3.org/2000/svg">
<path d="M36 19.6024C36.0038 16.6601 35.1748 13.7769 33.6091 11.2863C32.0434 8.79574 29.8048 6.79952 27.1525 5.52863C24.5001 4.25774 21.5422 3.76412 18.6211 4.10485C15.7 4.44559 12.935 5.60678 10.646 7.45407L10.6322 7.43632C4.40808 11.9611 2.25319 20.1784 5.50622 26.9794C6.40613 28.8599 7.66748 30.5447 9.21824 31.9376C10.769 33.3305 12.5788 34.4041 14.5443 35.0972C16.5098 35.7902 18.5925 36.0892 20.6735 35.977C22.7545 35.8648 24.793 35.3436 26.6726 34.4431C27.8556 33.877 28.8177 33.0249 29.7522 32.1985L30.1347 31.8612L30.0972 31.8138C31.9374 30.3551 33.4242 28.4991 34.4464 26.3844C35.4686 24.2698 35.9997 21.9513 36 19.6024ZM20.4091 34.1985C17.5236 34.1985 14.7029 33.3425 12.3036 31.7386C9.90444 30.1348 8.03448 27.8552 6.93025 25.1881C5.82601 22.521 5.53709 19.5862 6.10003 16.7548C6.66296 13.9235 8.05247 11.3227 10.0928 9.28137C12.1332 7.24006 14.7328 5.84991 17.5628 5.28672C20.3929 4.72352 23.3263 5.01258 25.9922 6.11732C28.658 7.22207 30.9366 9.09289 32.5397 11.4932C34.1428 13.8935 34.9984 16.7156 34.9984 19.6024C34.9943 23.4721 33.4558 27.182 30.7206 29.9181C27.9854 32.6542 24.277 34.1929 20.4091 34.1966V34.1985Z" fill="white"/>
<path d="M32.3908 20.4413H23.1246L21.5868 21.3959C20.4591 24.7491 19.221 27.1437 18.6532 26.974C17.9848 26.7768 18.456 23.1968 19.7079 18.9777C20.9599 14.7586 22.5134 11.5002 23.1818 11.6974C23.7456 11.8651 23.4933 14.4588 22.6455 17.7962L24.2385 19.0152H32.1247L33.6723 17.9619C33.2555 14.586 31.5689 11.4957 28.9556 9.31973C26.3422 7.14375 22.9985 6.04552 19.6045 6.24845C16.2106 6.45139 13.0214 7.94024 10.6857 10.4121C8.34998 12.884 7.04326 16.1533 7.03133 19.5549C7.0194 22.9564 8.30316 26.2348 10.6215 28.723C12.9397 31.2112 16.1184 32.7224 19.5109 32.9492C22.9033 33.176 26.2547 32.1012 28.8832 29.9437C31.5118 27.7861 33.22 24.7077 33.6605 21.3348L32.3908 20.4413Z" fill="white"/>
</svg>
