<svg width="32" height="32" viewBox="0 0 32 32" fill="none" xmlns="http://www.w3.org/2000/svg">
<path d="M32 15.6024C32.0038 12.6601 31.1748 9.77694 29.6091 7.28634C28.0434 4.79574 25.8048 2.79952 23.1525 1.52863C20.5001 0.257744 17.5422 -0.235885 14.6211 0.104855C11.7 0.445595 8.93502 1.60678 6.64602 3.45407L6.63222 3.43632C0.408077 7.96112 -1.74681 16.1784 1.50622 22.9794C2.40613 24.8599 3.66748 26.5447 5.21824 27.9376C6.76899 29.3305 8.57879 30.4041 10.5443 31.0972C12.5098 31.7902 14.5925 32.0892 16.6735 31.977C18.7545 31.8648 20.793 31.3436 22.6726 30.4431C23.8556 29.877 24.8177 29.0249 25.7522 28.1985L26.1347 27.8612L26.0972 27.8138C27.9374 26.3551 29.4242 24.4991 30.4464 22.3844C31.4686 20.2698 31.9997 17.9513 32 15.6024ZM16.4091 30.1985C13.5236 30.1985 10.7029 29.3425 8.30365 27.7386C5.90444 26.1348 4.03448 23.8552 2.93025 21.1881C1.82601 18.521 1.53709 15.5862 2.10003 12.7548C2.66296 9.92346 4.05247 7.32267 6.09283 5.28137C8.13319 3.24006 10.7328 1.84991 13.5628 1.28672C16.3929 0.723524 19.3263 1.01258 21.9922 2.11732C24.658 3.22207 26.9366 5.09289 28.5397 7.49322C30.1428 9.89354 30.9984 12.7156 30.9984 15.6024C30.9943 19.4721 29.4558 23.182 26.7206 25.9181C23.9854 28.6542 20.277 30.1929 16.4091 30.1966V30.1985Z" fill="#4C6FFF"/>
<path d="M28.3908 16.4413H19.1246L17.5868 17.3959C16.4591 20.7491 15.221 23.1437 14.6532 22.974C13.9848 22.7768 14.456 19.1968 15.7079 14.9777C16.9599 10.7586 18.5134 7.50016 19.1818 7.6974C19.7456 7.86506 19.4933 10.4588 18.6455 13.7962L20.2385 15.0152H28.1247L29.6723 13.9619C29.2555 10.586 27.5689 7.4957 24.9556 5.31973C22.3422 3.14375 18.9985 2.04552 15.6045 2.24845C12.2106 2.45139 9.02136 3.94024 6.68567 6.41214C4.34998 8.88403 3.04326 12.1533 3.03133 15.5549C3.0194 18.9564 4.30316 22.2348 6.62145 24.723C8.93974 27.2112 12.1184 28.7224 15.5109 28.9492C18.9033 29.176 22.2547 28.1012 24.8832 25.9437C27.5118 23.7861 29.22 20.7077 29.6605 17.3348L28.3908 16.4413Z" fill="#4C6FFF"/>
</svg>
